<svg width="17" height="17" viewBox="0 0 17 17" fill="none" xmlns="http://www.w3.org/2000/svg">
<path d="M15.64 3.98497C13.12 0.0999692 7.97501 -1.05503 3.98501 1.35997C0.100013 3.77497 -1.15999 9.02497 1.36001 12.91L1.57001 13.225L0.730013 16.375L3.88001 15.535L4.19501 15.745C5.56001 16.48 7.03001 16.9 8.50001 16.9C10.075 16.9 11.65 16.48 13.015 15.64C16.9 13.12 18.055 7.97497 15.64 3.98497ZM13.435 12.07C13.015 12.7 12.49 13.12 11.755 13.225C11.335 13.225 10.81 13.435 8.71001 12.595C6.92501 11.755 5.45501 10.39 4.40501 8.81497C3.77501 8.07997 3.46001 7.13497 3.35501 6.18997C3.35501 5.34997 3.67001 4.61497 4.19501 4.08997C4.40501 3.87997 4.61501 3.77497 4.82501 3.77497H5.35001C5.56001 3.77497 5.77001 3.77497 5.87501 4.19497C6.08501 4.71997 6.61001 5.97997 6.61001 6.08497C6.71501 6.18997 6.71501 6.39997 6.61001 6.50497C6.71501 6.71497 6.61001 6.92497 6.50501 7.02997C6.40001 7.13497 6.29501 7.34497 6.19001 7.44997C5.98001 7.55497 5.87501 7.76497 5.98001 7.97497C6.40001 8.60497 6.92501 9.23497 7.45001 9.75997C8.08001 10.285 8.71001 10.705 9.44501 11.02C9.65501 11.125 9.86501 11.125 9.97001 10.915C10.075 10.705 10.6 10.18 10.81 9.96997C11.02 9.75997 11.125 9.75997 11.335 9.86497L13.015 10.705C13.225 10.81 13.435 10.915 13.54 11.02C13.645 11.335 13.645 11.755 13.435 12.07Z" fill="#F0E3CA"/>
</svg>
